<?xml version="1.0" encoding="UTF-8"?>
<svg id="Layer_1" xmlns="http://www.w3.org/2000/svg" xmlns:xlink="http://www.w3.org/1999/xlink" version="1.1" viewBox="0 0 181.237 46.689">
  <!-- Generator: Adobe Illustrator 30.0.0, SVG Export Plug-In . SVG Version: 2.1.1 Build 123)  -->
  <defs>
    <style>
      .st0 {
        fill: #042c4c;
      }

      .st1 {
        fill: url(#linear-gradient);
      }

      .st2 {
        fill: #27aae1;
      }
    </style>
    <linearGradient id="linear-gradient" x1="46.093" y1="1.595" x2="-.836" y2="35.936" gradientUnits="userSpaceOnUse">
      <stop offset="0" stop-color="#27aae1"/>
      <stop offset="1" stop-color="#92278f"/>
    </linearGradient>
  </defs>
  <g>
    <path class="st0" d="M57.631,6.929h5.921l12.831,19.927V6.929h6.062v30.548h-5.875l-12.83-19.88v19.88h-6.109V6.929Z"/>
    <path class="st0" d="M86.207,29.112v-13.253h5.874v12.313c0,3.807,2.679,4.7,4.371,4.7s4.229-.894,4.229-4.7v-12.313h5.875v21.618h-5.875v-1.974c-1.645,1.738-3.9,2.35-6.016,2.35-3.9,0-8.459-2.115-8.459-8.741Z"/>
    <path class="st0" d="M109.518,26.667c0-6.532,4.323-11.138,10.245-11.138,2.726,0,4.746.986,6.203,2.632V6.929h5.875v30.548h-5.875v-2.256c-1.457,1.645-3.478,2.632-6.203,2.632-5.922,0-10.245-4.747-10.245-11.186ZM125.966,26.667c0-3.242-2.114-5.64-5.357-5.64s-5.404,2.397-5.404,5.64,2.161,5.64,5.404,5.64,5.357-2.396,5.357-5.64Z"/>
    <path class="st0" d="M136.401,42.787l3.807-3.243c1.691,1.786,3.713,2.209,5.357,2.209,2.021,0,5.687-1.128,5.687-5.78v-.799c-1.457,1.645-3.524,2.679-6.25,2.679-5.922,0-10.198-4.747-10.198-11.186s4.276-11.138,10.198-11.138c2.726,0,4.793.986,6.25,2.679v-2.35h5.875v20.114c0,6.204-4.089,10.716-11.562,10.716-3.9,0-7.19-1.552-9.164-3.901ZM151.251,26.667c0-3.242-2.161-5.64-5.404-5.64s-5.357,2.397-5.357,5.64,2.114,5.64,5.357,5.64,5.404-2.396,5.404-5.64Z"/>
    <path class="st0" d="M160.088,26.667c0-6.438,4.23-11.231,10.763-11.231,6.438,0,10.387,4.793,10.387,11.231v1.599h-15.509c.563,2.913,2.679,4.652,5.357,4.652,2.866,0,4.37-1.316,5.122-2.303l3.995,2.913c-1.88,2.727-5.17,4.418-9.117,4.418-6.627,0-10.998-4.841-10.998-11.279ZM175.738,24.553c-.517-2.538-2.115-4.465-4.888-4.465-2.679,0-4.465,1.739-5.028,4.465h9.916Z"/>
  </g>
  <g>
    <path class="st1" d="M37.774,14.782l-5.603,11.766L23.153,6.963C21.154,2.732,16.839,0,12.161,0,5.455,0,0,5.455,0,12.16v25.317h9.075V12.16c0-1.701,1.384-3.085,3.086-3.085,1.187,0,2.281.693,2.788,1.766l12.598,26.636h9.592l10.594-22.694h-9.957Z"/>
    <circle class="st2" cx="45.932" cy="6.929" r="5.556"/>
  </g>
</svg>