<?xml version="1.0" encoding="UTF-8"?>
<svg id="Layer_2" xmlns="http://www.w3.org/2000/svg" xmlns:xlink="http://www.w3.org/1999/xlink" version="1.1" viewBox="0 0 150.807 47.35">
  <!-- Generator: Adobe Illustrator 30.0.0, SVG Export Plug-In . SVG Version: 2.1.1 Build 123)  -->
  <defs>
    <style>
      .st0 {
        fill: #042c4c;
      }

      .st1 {
        fill: url(#linear-gradient);
      }

      .st2 {
        fill: #fff;
      }

      .st3 {
        fill: url(#linear-gradient1);
      }

      .st3, .st4 {
        isolation: isolate;
        opacity: .5;
      }

      .st4 {
        fill: url(#linear-gradient2);
      }
    </style>
    <linearGradient id="linear-gradient" x1="47.881" y1="42.808" x2="-1.769" y2="8.998" gradientTransform="translate(0 50) scale(1 -1)" gradientUnits="userSpaceOnUse">
      <stop offset="0" stop-color="#27aae1"/>
      <stop offset=".07" stop-color="#3499d6"/>
      <stop offset=".27" stop-color="#5570bd"/>
      <stop offset=".47" stop-color="#6f50a9"/>
      <stop offset=".66" stop-color="#82399a"/>
      <stop offset=".84" stop-color="#8e2b91"/>
      <stop offset="1" stop-color="#92278f"/>
    </linearGradient>
    <linearGradient id="linear-gradient1" x1="1.96" y1="48.04" x2="45.24" y2="4.76" gradientTransform="translate(0 50) scale(1 -1)" gradientUnits="userSpaceOnUse">
      <stop offset="0" stop-color="#fff"/>
      <stop offset="1" stop-color="#fff" stop-opacity="0"/>
    </linearGradient>
    <linearGradient id="linear-gradient2" x1="44.76" y1="5.24" x2="3.49" y2="46.51" gradientTransform="translate(0 50) scale(1 -1)" gradientUnits="userSpaceOnUse">
      <stop offset="0" stop-color="#262262"/>
      <stop offset="1" stop-color="#262262" stop-opacity="0"/>
    </linearGradient>
  </defs>
  <g id="Layer_1-2">
    <g>
      <path class="st0" d="M58.044,13.347h4.443l9.629,14.958v-14.958h4.548v22.928h-4.413l-9.629-14.92v14.92h-4.586V13.347h.008Z"/>
      <path class="st0" d="M79.486,29.994v-9.944h4.405v9.239c0,2.859,2.011,3.527,3.28,3.527s3.175-.668,3.175-3.527v-9.239h4.405v16.226h-4.405v-1.478c-1.231,1.306-2.927,1.764-4.518,1.764-2.927,0-6.349-1.591-6.349-6.559l.007-.008Z"/>
      <path class="st0" d="M96.981,28.155c0-4.901,3.242-8.361,7.693-8.361,2.049,0,3.565.743,4.653,1.974v-8.428h4.413v22.928h-4.413v-1.696c-1.096,1.231-2.612,1.974-4.653,1.974-4.443,0-7.693-3.565-7.693-8.398v.008ZM109.326,28.155c0-2.432-1.584-4.233-4.023-4.233s-4.053,1.801-4.053,4.233,1.621,4.233,4.053,4.233,4.023-1.801,4.023-4.233Z"/>
      <path class="st0" d="M117.162,40.253l2.859-2.432c1.268,1.343,2.784,1.659,4.023,1.659,1.516,0,4.27-.848,4.27-4.338v-.6c-1.096,1.231-2.642,2.011-4.691,2.011-4.443,0-7.655-3.565-7.655-8.398s3.212-8.361,7.655-8.361c2.049,0,3.595.743,4.691,2.011v-1.764h4.413v15.093c0,4.653-3.07,8.045-8.676,8.045-2.927,0-5.396-1.163-6.875-2.927h-.015ZM128.307,28.155c0-2.432-1.621-4.233-4.053-4.233s-4.023,1.801-4.023,4.233,1.584,4.233,4.023,4.233,4.053-1.801,4.053-4.233Z"/>
      <path class="st0" d="M134.934,28.155c0-4.833,3.175-8.428,8.075-8.428s7.798,3.595,7.798,8.428v1.201h-11.64c.42,2.184,2.011,3.49,4.023,3.49,2.154,0,3.28-.991,3.843-1.726l3.002,2.184c-1.411,2.049-3.88,3.317-6.845,3.317-4.976,0-8.256-3.632-8.256-8.466ZM146.679,26.571c-.39-1.906-1.591-3.347-3.67-3.347s-3.347,1.306-3.775,3.347c0,0,7.445,0,7.445,0Z"/>
    </g>
    <g>
      <g>
        <rect class="st1" width="47.35" height="47.35" rx="6.28" ry="6.28"/>
        <path class="st2" d="M27.82,36.05c2.63,0,4.77-2.14,4.77-4.77,0-1.27-.5-2.42-1.31-3.28,1.62-.76,2.76-2.41,2.76-4.32,0-1.06-.35-2.03-.94-2.83h4.89c2.63,0,4.77-2.14,4.77-4.77s-2.14-4.77-4.77-4.77h-21.54c-6.41.25-11.63,5.47-11.87,11.88-.13,3.4,1.1,6.62,3.45,9.06,2.35,2.45,5.52,3.79,8.92,3.79h10.87v.01ZM9.44,30.9c-1.98-2.06-3.02-4.77-2.91-7.64.21-5.4,4.6-9.8,10-10.01h.43c1.49,0,2.92.31,4.27.91,2.65,1.2,4.37,3.91,4.37,6.91v3.97c0,2.14-1.74,3.88-3.88,3.88s-3.88-1.74-3.88-3.88v-4.57c0-.54-.44-.97-.97-.97s-.97.44-.97.97v4.57c0,2.14,1.16,4.01,2.88,5.02-.1.39-.16.79-.16,1.21,0,1.06.35,2.03.94,2.83h-2.6c-2.86,0-5.53-1.14-7.51-3.2h-.01ZM23.39,34.1c-1.56,0-2.83-1.27-2.83-2.83,0-.17.02-.35.05-.51.36.07.73.11,1.11.11,1.94,0,3.66-.95,4.72-2.42h1.38c1.56,0,2.83,1.27,2.83,2.83s-1.27,2.83-2.83,2.83h-4.43v-.01ZM32.09,23.67c0,1.56-1.27,2.83-2.83,2.83h-1.9c.12-.47.18-.95.18-1.46v-4.19h1.73c1.56,0,2.83,1.27,2.83,2.83l-.01-.01ZM38,18.9h-10.7c-.52-2.3-1.87-4.32-3.77-5.65h14.47c1.56,0,2.83,1.27,2.83,2.83s-1.27,2.83-2.83,2.83v-.01Z"/>
      </g>
      <path class="st3" d="M41.07.86c2.99,0,5.42,2.43,5.42,5.42v34.79c0,2.99-2.43,5.42-5.42,5.42H6.28c-2.99,0-5.42-2.43-5.42-5.42V6.28c0-2.99,2.43-5.42,5.42-5.42h34.79M41.07,0H6.28C2.81,0,0,2.81,0,6.28v34.79c0,3.47,2.81,6.28,6.28,6.28h34.79c3.47,0,6.28-2.81,6.28-6.28V6.28c0-3.47-2.81-6.28-6.28-6.28h0Z"/>
      <path class="st4" d="M41.07.86c2.99,0,5.42,2.43,5.42,5.42v34.79c0,2.99-2.43,5.42-5.42,5.42H6.28c-2.99,0-5.42-2.43-5.42-5.42V6.28c0-2.99,2.43-5.42,5.42-5.42h34.79M41.07,0H6.28C2.81,0,0,2.81,0,6.28v34.79c0,3.47,2.81,6.28,6.28,6.28h34.79c3.47,0,6.28-2.81,6.28-6.28V6.28c0-3.47-2.81-6.28-6.28-6.28h0Z"/>
    </g>
  </g>
</svg>