<?xml version="1.0" encoding="UTF-8"?>
<svg id="Layer_1" xmlns="http://www.w3.org/2000/svg" xmlns:xlink="http://www.w3.org/1999/xlink" version="1.1" viewBox="0 0 174.38 54.468">
  <!-- Generator: Adobe Illustrator 30.0.0, SVG Export Plug-In . SVG Version: 2.1.1 Build 123)  -->
  <defs>
    <style>
      .st0 {
        fill: url(#linear-gradient1);
      }

      .st1 {
        fill: #042c4c;
      }

      .st2 {
        fill: url(#linear-gradient);
      }
    </style>
    <linearGradient id="linear-gradient" x1="35.343" y1="5.336" x2="5.217" y2="51.026" gradientUnits="userSpaceOnUse">
      <stop offset="0" stop-color="#27aae1"/>
      <stop offset=".071" stop-color="#3499d6"/>
      <stop offset=".274" stop-color="#5570bd"/>
      <stop offset=".473" stop-color="#6f50a9"/>
      <stop offset=".664" stop-color="#82399a"/>
      <stop offset=".844" stop-color="#8e2b91"/>
      <stop offset="1" stop-color="#92278f"/>
    </linearGradient>
    <linearGradient id="linear-gradient1" x1="37.018" y1="6.44" x2="6.892" y2="52.13" gradientUnits="userSpaceOnUse">
      <stop offset="0" stop-color="#27aae1"/>
      <stop offset=".071" stop-color="#3499d6"/>
      <stop offset=".274" stop-color="#5570bd"/>
      <stop offset=".473" stop-color="#6f50a9"/>
      <stop offset=".664" stop-color="#82399a"/>
      <stop offset=".844" stop-color="#8e2b91"/>
      <stop offset="1" stop-color="#92278f"/>
    </linearGradient>
  </defs>
  <g>
    <path class="st1" d="M50.774,14.708h5.921l12.831,19.927V14.708h6.062v30.548h-5.875l-12.83-19.88v19.88h-6.109V14.708Z"/>
    <path class="st1" d="M79.349,36.89v-13.253h5.874v12.312c0,3.807,2.679,4.7,4.371,4.7s4.229-.894,4.229-4.7v-12.312h5.875v21.618h-5.875v-1.974c-1.645,1.738-3.9,2.35-6.016,2.35-3.9,0-8.459-2.115-8.459-8.741Z"/>
    <path class="st1" d="M102.66,34.446c0-6.532,4.323-11.138,10.245-11.138,2.726,0,4.746.986,6.203,2.632v-11.232h5.875v30.548h-5.875v-2.256c-1.457,1.645-3.478,2.632-6.203,2.632-5.922,0-10.245-4.747-10.245-11.186ZM119.108,34.446c0-3.242-2.114-5.64-5.357-5.64s-5.404,2.397-5.404,5.64,2.161,5.64,5.404,5.64,5.357-2.396,5.357-5.64Z"/>
    <path class="st1" d="M129.543,50.566l3.807-3.243c1.691,1.786,3.713,2.209,5.357,2.209,2.021,0,5.687-1.128,5.687-5.78v-.799c-1.457,1.645-3.524,2.679-6.25,2.679-5.922,0-10.198-4.747-10.198-11.186s4.276-11.138,10.198-11.138c2.726,0,4.793.986,6.25,2.679v-2.35h5.875v20.114c0,6.204-4.089,10.716-11.562,10.716-3.9,0-7.19-1.552-9.164-3.901ZM144.393,34.446c0-3.242-2.161-5.64-5.404-5.64s-5.357,2.397-5.357,5.64,2.114,5.64,5.357,5.64,5.404-2.396,5.404-5.64Z"/>
    <path class="st1" d="M153.23,34.446c0-6.438,4.23-11.231,10.763-11.231,6.438,0,10.387,4.793,10.387,11.231v1.599h-15.509c.563,2.913,2.679,4.652,5.357,4.652,2.866,0,4.37-1.316,5.122-2.303l3.995,2.913c-1.88,2.727-5.17,4.418-9.117,4.418-6.627,0-10.998-4.841-10.998-11.279ZM168.881,32.332c-.517-2.538-2.115-4.465-4.888-4.465-2.679,0-4.465,1.739-5.028,4.465h9.916Z"/>
  </g>
  <g>
    <path class="st2" d="M9.075,19.939c0-1.702,1.384-3.085,3.086-3.085,1.187,0,2.281.693,2.788,1.767l12.598,26.636h9.592l3.796-30.571h-9.145l-1.801,14.508-6.835-14.451c-1.999-4.23-6.314-6.963-10.992-6.963C5.455,7.779,0,13.234,0,19.939v25.317h9.075v-25.317Z"/>
    <circle class="st0" cx="37.6" cy="5.556" r="5.556"/>
  </g>
</svg>